<svg width="163" height="40" viewBox="0 0 163 40" fill="none" xmlns="http://www.w3.org/2000/svg">
<path d="M119.044 23.0262C133.354 23.0262 147.663 23.0262 162.018 23.0262M10.5704 22.98C43.8511 22.98 77.0857 22.98 110.366 22.98H10.5704Z" stroke="#932788" stroke-width="0.7" stroke-miterlimit="10"/>
<path d="M0 9.57113C0 9.57113 2.40027 8.9238 2.8157 6.47322C2.8157 6.47322 3.27729 4.02264 3.87736 4.30006C4.47743 4.57749 4.80054 4.99362 5.44677 5.36352C6.093 5.73342 6.78538 6.24203 6.04684 7.53668C5.30829 8.78509 3.41577 10.6346 4.10816 12.5303C4.80054 14.4261 6.50843 16.7379 6.36995 18.2175C6.23147 19.6971 5.63141 21.6391 4.75438 23.9972C4.75438 23.9972 6.18532 18.7724 4.89286 16.8766C3.64657 14.8884 3.00034 14.3336 3.00034 14.3336C3.00034 14.3336 1.38477 12.669 2.95418 10.5421C4.66207 8.27648 5.26213 7.12054 5.0775 6.51946C4.8467 5.8259 4.15432 5.22481 3.78504 5.96461C3.36961 6.70441 2.90802 8.78509 0 9.57113Z" fill="#932788"/>
<path d="M4.01586 0.693544C4.56977 0.508594 5.26216 0.970969 5.53911 1.80324C5.81607 2.58928 5.58527 3.42155 5.03136 3.6065C4.47746 3.79145 3.78507 3.32908 3.50811 2.54304C3.23116 1.71077 3.46196 0.924731 4.01586 0.693544Z" fill="#932788"/>
<path d="M14.4016 9.57114L11.8167 12.3454V19.4659H10.7089V0.693551H11.8167V10.912L21.2793 0.693551H22.618L15.094 8.83134L23.3103 19.4659H22.064L14.4016 9.57114Z" fill="#932788"/>
<path d="M26.6338 0H27.6955V17.0154C27.6955 18.0788 28.2955 18.7262 29.2187 18.7262V19.5584C27.6493 19.5584 26.6338 18.6799 26.6338 17.1079V0Z" fill="#932788"/>
<path d="M33.0037 0.693551H34.0654V3.23661H33.0037V0.693551ZM33.0037 6.05709H34.0654V19.4659H33.0037V6.05709Z" fill="#932788"/>
<path d="M39.8353 19.4659H38.7736V6.05709H39.7891L39.8353 9.33994C40.5738 7.21302 42.0971 5.96461 44.0358 5.96461C46.1129 5.96461 47.6362 7.25926 48.0516 9.38618C48.8363 7.16678 50.498 5.96461 52.4829 5.96461C55.0216 5.96461 56.7295 7.76787 56.7295 10.8658V19.4659H55.6678V10.8658C55.6678 8.32272 54.2831 6.79689 52.2982 6.79689C49.9441 6.79689 48.2362 9.01628 48.2362 12.7615V19.4659H47.1746V10.8658C47.1746 8.32272 45.7898 6.79689 43.805 6.79689C41.4047 6.79689 39.7891 9.01628 39.7891 12.7615V19.4659H39.8353Z" fill="#932788"/>
<path d="M69.9771 16.1831C69.054 18.31 67.1614 19.5584 64.7612 19.5584C62.4532 19.5584 60.8376 18.31 60.8376 16.1368C60.8376 13.2701 63.7457 11.6518 68.8693 11.6518H69.9771V10.4034C69.9771 8.13777 68.3616 6.79688 66.0536 6.79688C63.7918 6.79688 62.0378 8.09153 62.0378 10.0335H60.9761C60.9761 7.58292 63.1918 5.96461 66.0536 5.96461C68.9616 5.96461 70.9926 7.58292 70.9926 10.4034V19.4659H69.9771V16.1831ZM68.8693 12.3916C64.3457 12.3916 61.8993 13.7787 61.8993 16.0444C61.8993 17.7552 63.0994 18.7261 64.8996 18.7261C67.8538 18.7261 69.9771 16.5992 69.9771 12.9465V12.4378H68.8693V12.3916Z" fill="#932788"/>
<path d="M78.6089 12.7615L76.8549 14.796V19.466H75.7932V0H76.8549V13.3626L83.3171 6.0571H84.6096L79.209 12.0217L85.302 19.466H84.0557L78.6089 12.7615Z" fill="#932788"/>
<path d="M89.6871 16.3218V6.84313H87.2868V6.05709H89.6871V3.23661H90.7487V6.05709H94.5799V6.84313H90.7487V16.368C90.7487 17.8476 91.8566 18.7261 93.5183 18.7261C93.8876 18.7261 94.2568 18.6799 94.5799 18.6337V19.4197C94.2107 19.4659 93.8414 19.5122 93.4721 19.5122C91.118 19.5584 89.6871 18.4025 89.6871 16.3218Z" fill="#932788"/>
<path d="M103.766 5.96461C107.505 5.96461 110.043 8.50767 110.043 12.7615C110.043 17.0154 107.505 19.5584 103.766 19.5584C100.073 19.5584 97.488 17.0154 97.488 12.7615C97.488 8.50767 100.073 5.96461 103.766 5.96461ZM103.766 18.7261C106.858 18.7261 108.982 16.5067 108.982 12.7615C108.982 9.01628 106.858 6.79688 103.766 6.79688C100.673 6.79688 98.5496 9.01628 98.5496 12.7615C98.5496 16.5067 100.673 18.7261 103.766 18.7261Z" fill="#932788"/>
<path d="M114.151 6.05709H115.167L115.213 9.33994C116.09 7.21302 117.89 5.96461 120.152 5.96461C123.752 5.96461 126.245 8.50767 126.245 12.7615C126.245 17.0154 123.752 19.5584 120.152 19.5584C117.89 19.5584 116.044 18.3562 115.213 16.2756V25.2919H114.151V6.05709ZM120.014 18.7261C123.106 18.7261 125.23 16.5067 125.23 12.7615C125.23 9.01628 123.106 6.79689 120.014 6.79689C117.152 6.79689 115.167 9.01628 115.167 12.7615C115.213 16.5067 117.152 18.7261 120.014 18.7261Z" fill="#932788"/>
<path d="M130.399 0H131.461V17.0154C131.461 18.0788 132.061 18.7262 132.984 18.7262V19.5584C131.415 19.5584 130.399 18.6799 130.399 17.1079V0Z" fill="#932788"/>
<path d="M145.216 16.1831C144.293 18.31 142.401 19.5584 140 19.5584C137.693 19.5584 136.077 18.31 136.077 16.1368C136.077 13.2701 138.985 11.6518 144.109 11.6518H145.216V10.4034C145.216 8.13777 143.601 6.79688 141.293 6.79688C139.031 6.79688 137.277 8.09153 137.277 10.0335H136.215C136.215 7.58292 138.431 5.96461 141.293 5.96461C144.201 5.96461 146.232 7.58292 146.232 10.4034V19.4659H145.216V16.1831ZM144.109 12.3916C139.585 12.3916 137.139 13.7787 137.139 16.0444C137.139 17.7552 138.339 18.7261 140.139 18.7261C143.093 18.7261 145.216 16.5992 145.216 12.9465V12.4378H144.109V12.3916Z" fill="#932788"/>
<path d="M152.094 19.4659H151.032V6.05709H152.048L152.094 9.33994C152.971 7.21302 154.771 5.96461 157.079 5.96461C159.987 5.96461 162.018 7.76787 162.018 10.8658V19.4659H160.957V10.8658C160.957 8.32272 159.249 6.79689 156.895 6.79689C154.033 6.79689 152.048 9.01628 152.048 12.7615V19.4659H152.094Z" fill="#932788"/>
<path d="M52.4829 30.4242C52.5752 30.2393 52.6675 30.0081 52.806 29.8231C52.9445 29.592 53.1291 29.407 53.3599 29.1758C53.5907 28.9909 53.8676 28.8059 54.1908 28.7134C54.5139 28.5747 54.8831 28.5285 55.2986 28.5285C55.8986 28.5285 56.4064 28.621 56.8218 28.8522C57.2373 29.0833 57.6065 29.3608 57.8835 29.7307C58.1604 30.1006 58.3912 30.5167 58.5297 31.0253C58.6682 31.4877 58.7143 31.9963 58.7143 32.5512C58.7143 33.1522 58.6682 33.6608 58.5297 34.1695C58.3912 34.6318 58.1604 35.048 57.8835 35.4179C57.6065 35.7878 57.2373 36.019 56.8218 36.2501C56.4064 36.4351 55.8986 36.5276 55.2986 36.5276C54.6523 36.5276 54.0984 36.3889 53.5907 36.1114C53.0829 35.834 52.7598 35.3716 52.529 34.7705H52.4829V39.0706H51.929V28.7134H52.4829V30.4242ZM55.2986 35.9727C55.8063 35.9727 56.2218 35.8802 56.591 35.6953C56.9603 35.5103 57.2373 35.2792 57.4681 34.9555C57.6988 34.6318 57.8835 34.2619 57.9758 33.8458C58.0681 33.4297 58.1604 32.9673 58.1604 32.5049C58.1604 32.0888 58.1143 31.6264 57.9758 31.2103C57.8835 30.7941 57.6988 30.4242 57.4681 30.1006C57.2373 29.7769 56.9603 29.4995 56.591 29.3145C56.2218 29.1296 55.8063 28.9909 55.2986 28.9909C54.7908 28.9909 54.3754 29.0833 54.0061 29.2683C53.6369 29.4532 53.3599 29.7307 53.1291 30.0543C52.8983 30.378 52.7598 30.7479 52.6675 31.164C52.5752 31.5802 52.529 32.0425 52.529 32.4587C52.529 32.921 52.5752 33.3372 52.6675 33.7533C52.7598 34.1695 52.8983 34.5394 53.1291 34.863C53.3599 35.1867 53.6369 35.4179 54.0061 35.6491C54.2831 35.8802 54.7447 35.9727 55.2986 35.9727Z" fill="#932788"/>
<path d="M65.9613 34.7705C65.8229 35.0017 65.7305 35.2329 65.5459 35.4179C65.3613 35.6028 65.1766 35.7878 64.9458 35.9727C64.715 36.1114 64.4381 36.2501 64.115 36.3426C63.7919 36.4351 63.4687 36.4813 63.0995 36.4813C62.3148 36.4813 61.6685 36.2964 61.207 35.9727C60.7454 35.6491 60.5607 35.0942 60.5607 34.3544C60.5607 33.892 60.653 33.5684 60.8377 33.2447C61.0223 32.9673 61.2531 32.7361 61.5301 32.5974C61.807 32.4124 62.084 32.32 62.4532 32.2275C62.8225 32.135 63.0995 32.0888 63.4226 32.0888L64.2996 31.9963C64.715 31.9501 65.0382 31.9038 65.269 31.8576C65.4997 31.8114 65.6844 31.7189 65.7767 31.5802C65.9152 31.4877 65.9613 31.3027 66.0075 31.164C66.0537 31.0253 66.0537 30.7479 66.0537 30.5167C66.0537 30.3318 66.0075 30.1006 65.9152 29.9619C65.8229 29.7769 65.7305 29.6382 65.5459 29.4995C65.3613 29.3608 65.1766 29.2683 64.8997 29.1758C64.6227 29.0833 64.2996 29.0371 63.9303 29.0371C63.2379 29.0371 62.684 29.2221 62.2686 29.5457C61.8532 29.8694 61.6224 30.378 61.5762 31.0715H60.93C60.9762 30.2393 61.2531 29.592 61.7147 29.1758C62.2224 28.7597 62.9148 28.5285 63.838 28.5285C64.7612 28.5285 65.4074 28.7134 65.8229 29.0833C66.2383 29.4532 66.4691 29.9156 66.4691 30.5167V34.9555C66.4691 35.048 66.4691 35.1867 66.4691 35.2792C66.4691 35.3716 66.4691 35.4641 66.5153 35.5566C66.5614 35.6491 66.6076 35.6953 66.6537 35.7878C66.6999 35.834 66.8384 35.8802 66.9307 35.8802C67.023 35.8802 67.1615 35.8802 67.3461 35.834V36.2964C67.2076 36.3426 67.023 36.3426 66.8845 36.3426C66.6537 36.3426 66.4691 36.2964 66.3306 36.2501C66.1921 36.2039 66.0998 36.1114 66.0075 36.019C65.9613 35.9265 65.869 35.7878 65.869 35.6491C65.8229 35.5103 65.8229 35.3716 65.8229 35.2329V34.7705H65.9613ZM65.9613 31.9963C65.8229 32.1812 65.5921 32.2737 65.3151 32.32C65.0382 32.3662 64.715 32.4124 64.3919 32.4587L63.4687 32.5511C63.1918 32.5974 62.9148 32.6436 62.6379 32.6899C62.3609 32.7361 62.1301 32.8286 61.8993 32.9673C61.6685 33.106 61.4839 33.2909 61.3454 33.4759C61.2069 33.7071 61.1608 33.9845 61.1608 34.3544C61.1608 34.9093 61.3454 35.3254 61.7147 35.6028C62.084 35.8802 62.5456 36.019 63.1918 36.019C63.838 36.019 64.3458 35.8802 64.715 35.6491C65.0843 35.4179 65.3613 35.1404 65.5921 34.863C65.7767 34.5394 65.9152 34.2619 65.9613 33.9845C66.0075 33.7071 66.0537 33.5221 66.0537 33.4297V31.9963H65.9613Z" fill="#932788"/>
<path d="M69.8849 25.7543V36.2964H69.331V25.7543H69.8849Z" fill="#932788"/>
<path d="M72.7005 27.2801V25.7543H73.2544V27.2801H72.7005ZM72.7005 36.2964V28.7134H73.2544V36.2964H72.7005Z" fill="#932788"/>
<path d="M76.1163 32.5511V32.6436C76.1163 33.106 76.1625 33.5221 76.3009 33.9383C76.4394 34.3544 76.5779 34.6781 76.8087 35.0017C77.0395 35.3254 77.3165 35.5566 77.6857 35.7415C78.055 35.9265 78.4243 36.019 78.8858 36.019C79.6244 36.019 80.2706 35.834 80.6861 35.4179C81.1476 35.0017 81.4246 34.4469 81.6092 33.7533H82.1631C81.9785 34.6318 81.6554 35.3254 81.0553 35.7878C80.5014 36.2501 79.7629 36.4813 78.8397 36.4813C78.2858 36.4813 77.778 36.3889 77.3626 36.1577C76.9472 35.9727 76.5779 35.6953 76.3009 35.3254C76.024 34.9555 75.7932 34.5394 75.6547 34.077C75.5162 33.6146 75.4701 33.106 75.4701 32.5511C75.4701 31.9963 75.5624 31.4877 75.7009 31.0253C75.8394 30.5629 76.0702 30.1006 76.3471 29.7307C76.6241 29.3608 76.9933 29.0833 77.4088 28.8522C77.8242 28.621 78.3319 28.5285 78.932 28.5285C79.4859 28.5285 79.9475 28.621 80.3629 28.8059C80.7784 28.9909 81.1015 29.2683 81.3784 29.592C81.6554 29.9156 81.8862 30.3318 82.0247 30.7941C82.1631 31.2565 82.2555 31.7189 82.2555 32.2275C82.2555 32.2737 82.2555 32.32 82.2555 32.4124C82.2555 32.5049 82.2555 32.5511 82.2555 32.5511H76.1163ZM81.7016 32.0888C81.7016 31.6726 81.6092 31.3027 81.5169 30.9328C81.3784 30.5629 81.24 30.2393 81.0092 29.9619C80.7784 29.6844 80.5014 29.4532 80.1783 29.2683C79.8552 29.0833 79.4859 29.0371 79.0243 29.0371C78.5627 29.0371 78.1473 29.1296 77.8242 29.3145C77.5011 29.4995 77.178 29.7307 76.9472 30.0081C76.7164 30.2855 76.5317 30.6092 76.3933 30.9791C76.2548 31.349 76.2086 31.7189 76.1625 32.135H81.7016V32.0888Z" fill="#932788"/>
<path d="M90.1948 31.0716C90.1487 30.7479 90.0563 30.4242 89.9179 30.193C89.7794 29.9156 89.5948 29.7307 89.364 29.5457C89.1332 29.3608 88.8562 29.2683 88.5793 29.1758C88.2561 29.0833 87.9792 29.0371 87.6099 29.0371C87.1483 29.0371 86.7329 29.1296 86.3636 29.3145C85.9944 29.4995 85.6712 29.7769 85.4405 30.1006C85.2097 30.4242 85.025 30.7941 84.8865 31.2103C84.7481 31.6264 84.7019 32.0425 84.7019 32.4587C84.7019 32.9673 84.7481 33.4297 84.8865 33.892C85.025 34.3082 85.2097 34.7243 85.4405 35.0017C85.6712 35.2792 85.9944 35.5566 86.3636 35.7415C86.7329 35.9265 87.1483 36.019 87.6561 36.019C88.0253 36.019 88.3485 35.9727 88.6254 35.834C88.9485 35.6953 89.1793 35.5566 89.4101 35.3254C89.6409 35.0942 89.8255 34.863 89.964 34.5856C90.1025 34.3082 90.1948 33.9845 90.241 33.6146H90.7949C90.7487 34.077 90.6102 34.4931 90.4256 34.8168C90.241 35.1867 90.0102 35.4641 89.7332 35.6953C89.4563 35.9265 89.1332 36.1114 88.7639 36.2501C88.3946 36.3889 88.0254 36.4351 87.6099 36.4351C87.0099 36.4351 86.4559 36.3426 86.0405 36.1114C85.6251 35.8802 85.2558 35.6028 84.9789 35.2329C84.7019 34.863 84.4711 34.4469 84.3788 33.9383C84.2865 33.4297 84.1942 32.921 84.1942 32.4124C84.1942 31.8576 84.2865 31.3952 84.4249 30.8866C84.5634 30.4242 84.7942 30.0081 85.1173 29.6382C85.3943 29.2683 85.7636 28.9909 86.2252 28.8059C86.6406 28.621 87.1483 28.4823 87.7022 28.4823C88.1177 28.4823 88.4869 28.5285 88.8562 28.621C89.2255 28.7134 89.5486 28.8984 89.8256 29.0833C90.1025 29.2683 90.3333 29.5457 90.5179 29.8694C90.7026 30.193 90.7949 30.5629 90.841 30.9791H90.1948V31.0716Z" fill="#932788"/>
<path d="M93.149 27.2801V25.7543H93.7029V27.2801H93.149ZM93.149 36.2964V28.7134H93.7029V36.2964H93.149Z" fill="#932788"/>
<path d="M96.6109 32.5511V32.6436C96.6109 33.106 96.6571 33.5221 96.7956 33.9383C96.9341 34.3544 97.0725 34.6781 97.3033 35.0017C97.5341 35.3254 97.8111 35.5566 98.1803 35.7415C98.5496 35.9265 98.9189 36.019 99.3805 36.019C100.119 36.019 100.765 35.834 101.181 35.4179C101.642 35.0017 101.919 34.4469 102.104 33.7533H102.658C102.473 34.6318 102.15 35.3254 101.55 35.7878C100.996 36.2501 100.257 36.4813 99.3343 36.4813C98.7804 36.4813 98.2727 36.3889 97.8572 36.1577C97.4418 35.9727 97.0725 35.6953 96.7956 35.3254C96.5186 34.9555 96.2878 34.5394 96.1494 34.077C96.0109 33.6146 95.9647 33.106 95.9647 32.5511C95.9647 31.9963 96.057 31.4877 96.1955 31.0253C96.334 30.5167 96.5648 30.1006 96.8417 29.7307C97.1187 29.3608 97.488 29.0833 97.9034 28.8522C98.3188 28.621 98.8266 28.5285 99.4266 28.5285C99.9805 28.5285 100.442 28.621 100.858 28.8059C101.273 28.9909 101.596 29.2683 101.873 29.592C102.15 29.9156 102.381 30.3318 102.519 30.7941C102.658 31.2565 102.75 31.7189 102.75 32.2275C102.75 32.2737 102.75 32.32 102.75 32.4124C102.75 32.4587 102.75 32.5511 102.75 32.5511H96.6109ZM102.196 32.0888C102.196 31.6726 102.104 31.3027 102.012 30.9328C101.919 30.5629 101.735 30.2393 101.504 29.9619C101.273 29.6844 100.996 29.4532 100.673 29.2683C100.35 29.0833 99.9806 29.0371 99.519 29.0371C99.0574 29.0371 98.6419 29.1296 98.3188 29.3145C97.9957 29.4995 97.6726 29.7307 97.4418 30.0081C97.211 30.2855 97.0264 30.6092 96.8879 30.9791C96.7494 31.349 96.7033 31.7189 96.6571 32.135H102.196V32.0888Z" fill="#932788"/>
<path d="M107.735 29.1758H106.074V34.4931C106.074 34.8168 106.12 35.048 106.166 35.2329C106.212 35.4179 106.35 35.5566 106.489 35.6491C106.627 35.7416 106.812 35.7878 106.997 35.834C107.181 35.834 107.412 35.8803 107.689 35.834V36.3426C107.412 36.3426 107.135 36.3426 106.858 36.3426C106.581 36.2964 106.35 36.2502 106.12 36.1115C105.889 35.9727 105.75 35.7878 105.612 35.5566C105.473 35.3254 105.427 34.9555 105.473 34.5394V29.1758H104.089V28.6672H105.473V26.3091H106.027V28.6672H107.689V29.1758H107.735Z" fill="#932788"/>
<path d="M115.352 28.7134V37.1287C115.352 37.4061 115.352 37.6373 115.305 37.8685C115.259 38.0996 115.167 38.2846 115.075 38.4695C114.982 38.6545 114.798 38.7932 114.613 38.8857C114.428 38.9782 114.151 39.0244 113.828 39.0244H113.551C113.505 39.0244 113.459 39.0244 113.413 39.0244C113.367 39.0244 113.321 39.0244 113.274 39.0244V38.5158C113.321 38.5158 113.367 38.5158 113.459 38.5158C113.551 38.5158 113.597 38.5158 113.644 38.5158C113.828 38.5158 114.013 38.5158 114.151 38.4695C114.29 38.4233 114.382 38.3308 114.475 38.2384C114.567 38.1459 114.613 37.9609 114.659 37.776C114.705 37.591 114.705 37.3598 114.705 37.0824V28.7134H115.352ZM114.751 27.2801V25.7543H115.305V27.2801H114.751Z" fill="#932788"/>
<path d="M123.476 36.2964V34.6781H123.429C123.337 34.9555 123.199 35.2329 123.014 35.4179C122.829 35.649 122.599 35.834 122.368 35.9727C122.137 36.1114 121.86 36.2501 121.583 36.3426C121.306 36.4351 121.029 36.4813 120.706 36.4813C120.244 36.4813 119.875 36.4351 119.598 36.2964C119.275 36.2039 119.044 36.0652 118.86 35.8802C118.675 35.6953 118.49 35.5103 118.398 35.2792C118.306 35.048 118.213 34.8168 118.167 34.5856C118.121 34.3544 118.075 34.1232 118.075 33.9383C118.075 33.7071 118.075 33.5221 118.075 33.3834V28.7134H118.629V33.5221C118.629 33.7071 118.629 33.9383 118.675 34.2619C118.721 34.5394 118.813 34.8168 118.952 35.0942C119.09 35.3716 119.321 35.6028 119.598 35.7878C119.875 35.9727 120.291 36.0652 120.798 36.0652C121.214 36.0652 121.583 35.9727 121.952 35.834C122.275 35.6953 122.599 35.4641 122.829 35.1867C123.06 34.9093 123.245 34.5856 123.383 34.1695C123.522 33.7996 123.568 33.3372 123.568 32.8748V28.7597H124.122V36.2964H123.476ZM119.229 26.8639V26.3553H122.783V26.8639H119.229Z" fill="#932788"/>
<path d="M126.845 33.7533C126.845 34.1232 126.937 34.4006 127.076 34.6781C127.214 34.9555 127.399 35.1867 127.63 35.3716C127.861 35.5566 128.091 35.6953 128.415 35.7878C128.691 35.8802 129.015 35.9265 129.384 35.9265C129.615 35.9265 129.892 35.9265 130.169 35.8802C130.446 35.834 130.722 35.7415 130.953 35.6491C131.184 35.5103 131.415 35.3716 131.553 35.1404C131.692 34.9093 131.784 34.6781 131.784 34.3544C131.784 33.9383 131.646 33.6146 131.415 33.3834C131.138 33.1522 130.815 33.0135 130.446 32.8748C130.076 32.7361 129.661 32.6436 129.199 32.5974C128.738 32.5512 128.322 32.4124 127.953 32.2737C127.584 32.135 127.261 31.9038 126.984 31.6264C126.707 31.349 126.614 30.9791 126.614 30.4242C126.614 30.0543 126.707 29.7307 126.845 29.4995C127.03 29.2683 127.214 29.0371 127.491 28.8984C127.768 28.7597 128.045 28.6672 128.368 28.5747C128.691 28.4823 129.015 28.4823 129.338 28.4823C129.753 28.4823 130.122 28.5285 130.446 28.621C130.769 28.7134 131.092 28.8522 131.323 29.0371C131.553 29.2221 131.784 29.4995 131.923 29.7769C132.061 30.1006 132.153 30.4705 132.153 30.8866H131.6C131.6 30.5629 131.553 30.2393 131.415 30.0081C131.276 29.7769 131.138 29.5457 130.953 29.407C130.769 29.2683 130.492 29.1296 130.215 29.0833C129.938 28.9909 129.661 28.9909 129.338 28.9909C129.061 28.9909 128.83 29.0371 128.553 29.0833C128.276 29.1296 128.045 29.2221 127.861 29.3145C127.676 29.4532 127.491 29.592 127.353 29.7769C127.214 29.9619 127.168 30.193 127.168 30.4705C127.168 30.7941 127.261 31.0253 127.399 31.2103C127.538 31.3952 127.722 31.5339 127.999 31.6726C128.23 31.7651 128.507 31.8576 128.83 31.9501C129.153 31.9963 129.43 32.0888 129.753 32.135C130.122 32.1813 130.492 32.2737 130.815 32.3662C131.138 32.4587 131.415 32.5974 131.692 32.7361C131.923 32.9211 132.107 33.106 132.246 33.3834C132.384 33.6608 132.43 33.9845 132.43 34.3544C132.43 34.7705 132.338 35.0942 132.153 35.3716C131.969 35.6491 131.738 35.834 131.461 36.019C131.184 36.2039 130.861 36.2964 130.492 36.3426C130.122 36.3889 129.799 36.4351 129.476 36.4351C129.061 36.4351 128.645 36.3889 128.276 36.2501C127.907 36.1114 127.584 35.9727 127.307 35.7415C127.03 35.5103 126.799 35.2329 126.66 34.9093C126.522 34.5856 126.43 34.1695 126.43 33.7533H126.845Z" fill="#932788"/>
<path d="M140.231 30.4242C140.324 30.2393 140.416 30.0081 140.554 29.8231C140.693 29.592 140.878 29.407 141.108 29.1758C141.339 28.9909 141.616 28.8059 141.939 28.7134C142.262 28.621 142.632 28.5285 143.047 28.5285C143.647 28.5285 144.155 28.621 144.57 28.8522C144.986 29.0833 145.355 29.3608 145.632 29.7307C145.909 30.1006 146.14 30.5167 146.278 31.0253C146.417 31.4877 146.463 31.9963 146.463 32.5512C146.463 33.1522 146.37 33.6608 146.278 34.1695C146.14 34.6318 145.909 35.048 145.632 35.4179C145.355 35.7878 144.986 36.019 144.57 36.2501C144.155 36.4351 143.647 36.5276 143.047 36.5276C142.401 36.5276 141.847 36.3889 141.339 36.1114C140.831 35.834 140.508 35.3716 140.277 34.7705H140.231V39.0706H139.677V28.7134H140.231V30.4242ZM143.001 35.9727C143.509 35.9727 143.924 35.8802 144.293 35.6953C144.663 35.5103 144.94 35.2792 145.17 34.9555C145.401 34.6318 145.586 34.2619 145.678 33.8458C145.77 33.4297 145.863 32.9673 145.863 32.5049C145.863 32.0888 145.817 31.6264 145.678 31.2103C145.586 30.7941 145.401 30.4242 145.17 30.1006C144.94 29.7769 144.663 29.4995 144.293 29.3145C143.924 29.1296 143.509 28.9909 143.001 28.9909C142.493 28.9909 142.078 29.0833 141.708 29.2683C141.339 29.4532 141.062 29.7307 140.831 30.0543C140.601 30.378 140.462 30.7479 140.37 31.164C140.277 31.5802 140.231 32.0425 140.231 32.4587C140.231 32.921 140.277 33.3372 140.37 33.7533C140.462 34.1695 140.601 34.5394 140.831 34.863C141.062 35.1867 141.339 35.4179 141.708 35.6491C142.078 35.8802 142.493 35.9727 143.001 35.9727Z" fill="#932788"/>
<path d="M153.664 34.7705C153.525 35.0017 153.433 35.2329 153.248 35.4179C153.063 35.6028 152.879 35.7878 152.648 35.9727C152.417 36.1114 152.14 36.2501 151.817 36.3426C151.494 36.4351 151.171 36.4813 150.802 36.4813C149.971 36.4813 149.371 36.2964 148.909 35.9727C148.448 35.6491 148.263 35.0942 148.263 34.3544C148.263 33.892 148.355 33.5684 148.54 33.2447C148.725 32.9673 148.955 32.7361 149.232 32.5974C149.509 32.4124 149.786 32.32 150.155 32.2275C150.525 32.135 150.802 32.0888 151.125 32.0888L152.002 31.9963C152.417 31.9501 152.74 31.9038 152.971 31.8576C153.202 31.8114 153.387 31.7189 153.479 31.5802C153.571 31.4415 153.664 31.3027 153.71 31.164C153.756 30.9791 153.756 30.7479 153.756 30.5167C153.756 30.3318 153.71 30.1006 153.617 29.9619C153.525 29.7769 153.433 29.6382 153.248 29.4995C153.063 29.3608 152.879 29.2683 152.602 29.1758C152.325 29.0833 152.002 29.0371 151.633 29.0371C150.94 29.0371 150.386 29.2221 149.971 29.5457C149.555 29.8694 149.325 30.378 149.278 31.0715H148.725C148.771 30.2393 149.048 29.592 149.509 29.1758C150.017 28.7597 150.709 28.5285 151.633 28.5285C152.556 28.5285 153.202 28.7134 153.617 29.0833C154.033 29.4532 154.264 29.9156 154.264 30.5167V34.9555C154.264 35.048 154.264 35.1867 154.264 35.2792C154.264 35.3716 154.264 35.4641 154.31 35.5566C154.356 35.6491 154.402 35.6953 154.448 35.7878C154.494 35.834 154.633 35.8802 154.725 35.8802C154.818 35.8802 154.956 35.8802 155.141 35.834V36.2964C155.002 36.3426 154.818 36.3426 154.679 36.3426C154.448 36.3426 154.264 36.2964 154.125 36.2501C153.987 36.2039 153.894 36.1114 153.802 36.019C153.71 35.9265 153.664 35.7878 153.664 35.6491C153.617 35.5103 153.617 35.3716 153.617 35.2329V34.7705H153.664ZM153.664 31.9963C153.525 32.1812 153.294 32.2737 153.017 32.32C152.74 32.3662 152.417 32.4124 152.094 32.4587L151.171 32.5511C150.894 32.5974 150.617 32.6436 150.34 32.6899C150.063 32.7361 149.832 32.8286 149.602 32.9673C149.371 33.106 149.186 33.2909 149.048 33.4759C148.909 33.7071 148.863 33.9845 148.863 34.3544C148.863 34.9093 149.048 35.3254 149.417 35.6028C149.786 35.8802 150.248 36.019 150.894 36.019C151.54 36.019 152.048 35.8802 152.417 35.6491C152.787 35.4179 153.063 35.1404 153.294 34.863C153.479 34.5394 153.617 34.2619 153.664 33.9845C153.71 33.7071 153.756 33.5221 153.756 33.4297V31.9963H153.664Z" fill="#932788"/>
<path d="M159.71 29.1758H158.049V34.4931C158.049 34.8168 158.095 35.048 158.141 35.2329C158.187 35.4179 158.326 35.5566 158.464 35.6491C158.603 35.7416 158.787 35.7878 158.972 35.834C159.156 35.834 159.387 35.8803 159.664 35.834V36.3426C159.387 36.3426 159.11 36.3426 158.833 36.3426C158.556 36.2964 158.326 36.2502 158.095 36.1115C157.864 35.9727 157.726 35.7878 157.587 35.5566C157.449 35.3254 157.402 34.9555 157.449 34.5394V29.1758H156.064V28.6672H157.449V26.3091H158.003V28.6672H159.664V29.1758H159.71Z" fill="#932788"/>
<path d="M161.741 27.2801V25.7543H162.295V27.2801H161.741ZM161.741 36.2964V28.7134H162.295V36.2964H161.741Z" fill="#932788"/>
</svg>
