<svg width="208" height="41" viewBox="0 0 208 41" fill="none" xmlns="http://www.w3.org/2000/svg">
<path d="M127.877 25.1758C85.9174 25.1758 47.5543 25.1758 10.6897 25.1758V24.3766C69.633 24.3766 132.273 24.3766 207.8 24.3766V25.1758C179.527 25.1758 153.053 25.1758 127.877 25.1758Z" fill="#922686"/>
<path d="M14.7858 9.79059L11.9885 12.7877V20.5802H10.7896V0H11.9885V11.1892L22.3785 0H23.7771L15.585 8.89145L24.5764 20.5802H23.1777L14.7858 9.79059Z" fill="#922686"/>
<path d="M31.7695 6.79347C31.7695 19.781 30.3708 20.6801 27.074 20.6801V19.781C29.4717 19.781 30.6705 19.0817 30.6705 5.89433H40.2613V20.5802H39.1623V6.79347H31.7695Z" fill="#922686"/>
<path d="M56.0461 7.5927L46.4553 20.5802H45.3564V5.89433H46.4553V18.7819L56.146 5.89433H57.245V20.5802H56.0461V7.5927Z" fill="#922686"/>
<path d="M62.44 5.89433H63.9385L70.1326 19.2815L76.4265 5.89433H77.9251V20.5802H76.8261V7.5927L70.732 20.5802H69.633L63.5389 7.5927V20.5802H62.44V5.89433Z" fill="#922686"/>
<path d="M92.4111 16.9837C91.4121 19.3814 89.3141 20.6801 86.7166 20.6801C84.219 20.6801 82.4208 19.2815 82.4208 16.8838C82.4208 13.7867 85.6177 11.9885 91.2123 11.9885H92.4111V10.5898C92.4111 8.09222 90.6129 6.69356 88.1153 6.69356C85.6177 6.69356 83.7195 8.09222 83.7195 10.1902H82.6206C82.6206 7.4928 85.0183 5.79443 88.2152 5.79443C91.4121 5.79443 93.61 7.5927 93.61 10.6897V20.5802H92.511L92.4111 16.9837ZM91.2123 12.7877C86.2171 12.7877 83.6196 14.2863 83.6196 16.7839C83.6196 18.682 84.9183 19.6811 86.9164 19.6811C90.2133 19.6811 92.511 17.2834 92.511 13.2872V12.6878H91.2123V12.7877Z" fill="#922686"/>
<path d="M102.601 12.7877L99.9039 15.3852V20.5802H98.7051V5.89433H99.9039V13.8866L107.796 5.89433H109.295L103.301 11.9885L110.094 20.5802H108.795L102.601 12.7877Z" fill="#922686"/>
<path d="M112.492 5.89433H125.28V6.79347H119.485V20.5802H118.286V6.79347H112.492V5.89433Z" fill="#922686"/>
<path d="M134.671 5.79443C138.767 5.79443 141.564 8.59174 141.564 13.1873C141.564 17.8828 138.767 20.5802 134.671 20.5802C130.574 20.5802 127.777 17.7829 127.777 13.1873C127.777 8.59174 130.574 5.79443 134.671 5.79443ZM134.671 19.781C138.067 19.781 140.365 17.3833 140.365 13.2872C140.365 9.19116 138.067 6.79347 134.671 6.79347C131.274 6.79347 128.976 9.19116 128.976 13.2872C128.976 17.2834 131.274 19.781 134.671 19.781Z" fill="#922686"/>
<path d="M156.849 6.79347H147.159V20.5802H145.96V5.89433H157.948V20.5802H156.849V6.79347Z" fill="#922686"/>
<path d="M166.74 6.79347C166.74 19.781 165.341 20.6801 162.044 20.6801V19.781C164.442 19.781 165.641 19.0817 165.641 5.89433H175.232V20.5802H174.133V6.79347H166.74Z" fill="#922686"/>
<path d="M189.618 16.9837C188.619 19.3814 186.521 20.6801 183.923 20.6801C181.426 20.6801 179.627 19.2815 179.627 16.8838C179.627 13.7867 182.824 11.9885 188.419 11.9885H189.618V10.5898C189.618 8.09222 187.819 6.69356 185.322 6.69356C182.824 6.69356 180.926 8.09222 180.926 10.1902H179.827C179.827 7.4928 182.225 5.79443 185.422 5.79443C188.619 5.79443 190.817 7.5927 190.817 10.6897V20.5802H189.718L189.618 16.9837ZM188.419 12.7877C183.424 12.7877 180.826 14.2863 180.826 16.7839C180.826 18.682 182.125 19.6811 184.123 19.6811C187.42 19.6811 189.718 17.2834 189.718 13.2872V12.6878H188.419V12.7877Z" fill="#922686"/>
<path d="M206.601 13.487H197.11V20.5802H195.912V5.89433H197.11V12.5879H206.601V5.89433H207.8V20.5802H206.601V13.487Z" fill="#922686"/>
<path d="M0 9.89049C0 9.89049 2.69741 9.19116 3.09702 6.49376C3.09702 6.49376 3.59654 3.79635 4.29587 4.09606C4.89529 4.39577 5.29491 4.89529 6.09414 5.29491C6.79347 5.69452 7.5927 6.29395 6.79347 7.6926C5.89433 8.99135 3.79635 11.0893 4.59558 13.1873C5.39481 15.2853 7.29299 17.7829 7.09318 19.4813C6.99328 21.0797 6.29395 23.2776 5.29491 25.8751C5.29491 25.8751 6.89337 20.0807 5.49472 17.9827C4.09606 15.8847 3.29683 15.1854 3.29683 15.1854C3.29683 15.1854 1.49856 13.3871 3.19693 10.9894C5.0951 8.49183 5.79443 7.19308 5.49472 6.59366C5.29491 5.79443 4.49568 5.0951 4.09606 5.99424C3.69645 6.79347 3.19693 9.09126 0 9.89049Z" fill="#922686"/>
<path d="M4.39577 0.199808C4.9952 0 5.79443 0.49952 6.09414 1.39866C6.39385 2.29779 6.19404 3.19693 5.49472 3.39673C4.89529 3.59654 4.19597 3.09702 3.89625 2.19789C3.59654 1.29875 3.79635 0.399616 4.39577 0.199808Z" fill="#922686"/>
<path d="M94.1095 38.5629C93.3103 38.5629 92.611 38.3631 92.0115 38.0634C91.4121 37.6638 90.9126 37.2642 90.513 36.5648C90.1134 35.9654 90.0134 35.2661 90.0134 34.4669C90.0134 33.6676 90.2133 32.9683 90.513 32.3689C90.9126 31.7695 91.4121 31.2699 92.0115 30.8703C92.611 30.5706 93.3103 30.3708 94.1095 30.3708C94.9087 30.3708 95.6081 30.5706 96.2075 30.8703C96.8069 31.2699 97.3064 31.6696 97.7061 32.3689C98.1057 32.9683 98.2056 33.6676 98.2056 34.4669C98.2056 35.2661 98.0058 35.9654 97.7061 36.5648C97.3064 37.1643 96.8069 37.6638 96.2075 38.0634C95.6081 38.3631 94.9087 38.5629 94.1095 38.5629ZM90.7128 34.7666C90.7128 35.366 90.9126 35.9654 91.2123 36.365C91.512 36.8646 91.9116 37.2642 92.4111 37.5639C92.9107 37.8636 93.5101 37.9635 94.1095 37.9635C94.7089 37.9635 95.3084 37.8636 95.8079 37.5639C96.3074 37.2642 96.707 36.8646 97.0067 36.365C97.3064 35.8655 97.5062 35.366 97.5062 34.7666H90.7128ZM90.7128 34.1671H97.5062C97.5062 33.5677 97.3064 33.0682 97.0067 32.5687C96.707 32.0692 96.3074 31.6695 95.8079 31.3698C95.3084 31.0701 94.7089 30.9702 94.1095 30.9702C93.5101 30.9702 92.9107 31.0701 92.4111 31.3698C91.9116 31.6695 91.512 32.0692 91.2123 32.5687C90.9126 32.9683 90.7128 33.5677 90.7128 34.1671Z" fill="#922686"/>
<path d="M102.601 38.5629C102.002 38.5629 101.403 38.463 100.903 38.2632C100.304 38.0634 99.9039 37.7637 99.4044 37.3641L99.3045 37.2642L99.7041 36.7646L99.804 36.8646C100.104 37.1643 100.603 37.464 101.103 37.5639C101.602 37.7637 102.102 37.7637 102.701 37.7637C103.401 37.7637 104.1 37.5639 104.599 37.2642C105.099 36.9645 105.399 36.4649 105.399 35.9654C105.399 35.4659 105.199 35.1662 104.699 34.8665C104.3 34.5668 103.6 34.4669 102.901 34.4669H101.602V33.9673H102.901C103.6 33.9673 104.1 33.8674 104.5 33.5677C104.899 33.268 105.099 32.9683 105.099 32.5687C105.099 32.0692 104.899 31.6695 104.4 31.3698C103.9 31.0701 103.301 30.9702 102.601 30.9702C101.702 30.9702 100.903 31.17 100.104 31.6696L100.004 31.7695L99.7041 31.17H99.804C100.204 30.9702 100.703 30.7704 101.203 30.5706C101.702 30.4707 102.202 30.3708 102.601 30.3708C103.5 30.3708 104.2 30.5706 104.799 30.9702C105.399 31.3698 105.698 31.8694 105.698 32.5687C105.698 33.0682 105.499 33.4678 105.199 33.7675C104.999 33.9673 104.599 34.1671 104.3 34.367C104.799 34.4669 105.099 34.6667 105.399 34.9664C105.798 35.366 105.898 35.7656 105.898 36.2651C105.898 36.7646 105.698 37.1643 105.399 37.5639C105.099 37.9635 104.699 38.1633 104.2 38.3631C103.8 38.463 103.201 38.5629 102.601 38.5629Z" fill="#922686"/>
<path d="M111.892 34.6667H107.796V33.9673H111.892V34.6667Z" fill="#922686"/>
<path d="M117.887 38.5629C117.087 38.5629 116.388 38.3631 115.789 38.0634C115.189 37.6638 114.69 37.2642 114.29 36.5648C113.89 35.9654 113.791 35.2661 113.791 34.4669C113.791 33.6676 113.99 32.9683 114.29 32.3689C114.69 31.7695 115.189 31.2699 115.789 30.8703C116.388 30.5706 117.087 30.3708 117.887 30.3708C118.686 30.3708 119.385 30.5706 119.985 30.8703C120.584 31.17 121.084 31.6696 121.483 32.3689C121.883 32.9683 121.983 33.6676 121.983 34.4669C121.983 35.2661 121.783 35.9654 121.483 36.5648C121.084 37.1643 120.584 37.6638 119.985 38.0634C119.385 38.3631 118.686 38.5629 117.887 38.5629ZM114.49 34.7666C114.49 35.366 114.69 35.9654 114.989 36.365C115.289 36.8646 115.689 37.2642 116.188 37.5639C116.688 37.8636 117.287 37.9635 117.887 37.9635C118.486 37.9635 119.085 37.8636 119.585 37.5639C120.085 37.2642 120.484 36.8646 120.784 36.365C121.084 35.8655 121.283 35.366 121.283 34.7666H114.49ZM114.49 34.1671H121.283C121.283 33.5677 121.084 33.0682 120.784 32.5687C120.484 32.0692 120.085 31.6695 119.585 31.3698C119.085 31.0701 118.486 30.9702 117.887 30.9702C117.287 30.9702 116.688 31.0701 116.188 31.3698C115.689 31.6695 115.289 32.0692 114.989 32.5687C114.69 32.9683 114.49 33.5677 114.49 34.1671Z" fill="#922686"/>
<path d="M126.378 38.5629C125.779 38.5629 125.18 38.463 124.68 38.2632C124.081 38.0634 123.681 37.7637 123.182 37.3641L123.082 37.2642L123.481 36.7646L123.581 36.8646C123.881 37.1643 124.38 37.464 124.88 37.5639C125.379 37.7637 125.879 37.7637 126.478 37.7637C127.178 37.7637 127.877 37.5639 128.377 37.2642C128.876 36.9645 129.176 36.4649 129.176 35.9654C129.176 35.4659 128.976 35.1662 128.476 34.8665C128.077 34.5668 127.378 34.4669 126.678 34.4669H125.379V33.9673H126.678C127.378 33.9673 127.877 33.8674 128.277 33.5677C128.676 33.268 128.876 32.9683 128.876 32.5687C128.876 32.0692 128.676 31.6695 128.177 31.3698C127.677 31.0701 127.078 30.9702 126.378 30.9702C125.479 30.9702 124.68 31.17 123.881 31.6696L123.781 31.7695L123.481 31.17H123.581C123.981 30.9702 124.48 30.7704 124.98 30.5706C125.479 30.4707 125.979 30.3708 126.378 30.3708C127.278 30.3708 127.977 30.5706 128.576 30.9702C129.176 31.3698 129.476 31.8694 129.476 32.5687C129.476 33.0682 129.276 33.4678 128.976 33.7675C128.776 33.9673 128.377 34.1671 128.077 34.367C128.576 34.4669 128.876 34.6667 129.176 34.9664C129.575 35.2661 129.675 35.7656 129.675 36.2651C129.675 36.7646 129.476 37.1643 129.176 37.5639C128.876 37.9635 128.476 38.1633 127.977 38.3631C127.477 38.463 126.978 38.5629 126.378 38.5629Z" fill="#922686"/>
<path d="M133.072 38.5629H132.373V30.3708H133.072V38.5629ZM132.672 28.4726C132.473 28.4726 132.373 28.3727 132.273 28.2728C132.173 28.1729 132.073 27.9731 132.073 27.8732C132.073 27.6734 132.173 27.5735 132.273 27.4736C132.473 27.2738 132.872 27.2738 133.072 27.4736C133.172 27.5735 133.272 27.7733 133.272 27.8732C133.272 28.073 133.172 28.1729 133.072 28.2728C132.972 28.3727 132.872 28.4726 132.672 28.4726Z" fill="#922686"/>
<path d="M144.561 40.3612H143.862V38.5629H142.563V34.7666H136.968V38.5629H136.269V30.3708H136.968V34.0672H142.563V30.3708H143.262V37.8636H144.561V40.3612Z" fill="#922686"/>
<path d="M155.451 38.5629H154.851V31.7695L151.354 37.5639H150.955L147.458 31.8694V38.6628H146.759V30.4707H147.358L151.055 36.5648L154.751 30.3708H155.351V38.5629H155.451Z" fill="#922686"/>
<path d="M162.044 38.5629C161.245 38.5629 160.546 38.3631 159.946 38.0634C159.347 37.6638 158.847 37.2642 158.448 36.5648C158.048 35.9654 157.948 35.2661 157.948 34.4669C157.948 33.6676 158.148 32.9683 158.448 32.3689C158.747 31.7695 159.247 31.2699 159.846 30.8703C160.446 30.4707 161.045 30.3708 161.844 30.3708C162.544 30.3708 163.243 30.5706 163.743 30.8703C164.342 31.17 164.742 31.6696 165.141 32.3689C165.441 32.9683 165.641 33.6676 165.641 34.4669V34.6667H158.647C158.647 35.2661 158.847 35.8655 159.147 36.365C159.447 36.8646 159.846 37.2642 160.346 37.5639C160.845 37.8636 161.445 37.9635 162.144 37.9635C162.644 37.9635 163.143 37.8636 163.643 37.6638C164.042 37.464 164.442 37.1643 164.742 36.7646L164.842 36.6647L165.341 37.1643L165.241 37.2642C164.841 37.6638 164.442 38.0634 163.942 38.2632C163.243 38.463 162.644 38.5629 162.044 38.5629ZM158.647 33.9673H164.941C164.941 33.3679 164.742 32.8684 164.442 32.4688C164.142 31.9693 163.743 31.5696 163.343 31.3698C162.843 31.0701 162.344 30.9702 161.744 30.9702C161.145 30.9702 160.646 31.0701 160.146 31.3698C159.647 31.6695 159.347 31.9693 159.047 32.4688C158.847 32.9683 158.647 33.4678 158.647 33.9673Z" fill="#922686"/>
<path d="M174.932 38.5629H174.232V34.7666H168.638V38.5629H167.939V30.3708H168.638V34.0672H174.232V30.3708H174.932V38.5629Z" fill="#922686"/>
<path d="M185.721 38.5629C184.822 38.5629 184.123 38.3631 183.424 37.8636C182.824 37.464 182.325 36.7647 182.025 35.9654C181.725 35.1662 181.525 34.2671 181.525 33.268C181.525 32.0692 181.625 30.9702 181.925 30.171C182.225 29.3718 182.624 28.7723 183.224 28.2728C183.823 27.7733 184.523 27.4736 185.522 27.2738L189.118 26.3746L189.218 27.074L185.821 27.9731C184.922 28.1729 184.223 28.4726 183.723 28.8722C183.224 29.2719 182.824 29.7714 182.524 30.4707C182.325 31.0701 182.225 31.7695 182.125 32.5687C182.425 31.9693 182.724 31.4697 183.224 31.17C183.923 30.6705 184.722 30.4707 185.622 30.4707C186.421 30.4707 187.02 30.6705 187.62 30.9702C188.219 31.2699 188.719 31.7695 189.018 32.3689C189.318 32.9683 189.518 33.6676 189.518 34.4669C189.518 35.2661 189.318 35.9654 189.018 36.5648C188.719 37.1643 188.219 37.6638 187.62 38.0634C187.12 38.3631 186.421 38.5629 185.721 38.5629ZM185.721 31.0701C185.122 31.0701 184.523 31.17 184.023 31.4697C183.524 31.7695 183.124 32.1691 182.824 32.6686C182.525 33.1681 182.425 33.7675 182.425 34.4669C182.425 35.1662 182.525 35.7656 182.824 36.2651C183.124 36.7646 183.524 37.1643 184.023 37.464C184.523 37.7637 185.122 37.8636 185.721 37.8636C186.321 37.8636 186.92 37.7637 187.42 37.464C187.919 37.1643 188.319 36.7646 188.519 36.2651C188.818 35.7656 188.918 35.1662 188.918 34.4669C188.918 33.7675 188.818 33.1681 188.519 32.6686C188.219 32.1691 187.819 31.7695 187.42 31.4697C186.92 31.2699 186.321 31.0701 185.721 31.0701Z" fill="#922686"/>
<path d="M195.312 38.5629C194.513 38.5629 193.914 38.3631 193.214 38.0634C192.615 37.6638 192.115 37.2642 191.816 36.5648C191.516 35.9654 191.316 35.2661 191.316 34.4669C191.316 33.6676 191.516 32.9683 191.816 32.3689C192.115 31.7695 192.615 31.2699 193.214 30.8703C193.814 30.5706 194.513 30.3708 195.312 30.3708C196.111 30.3708 196.811 30.5706 197.41 30.8703C198.01 31.2699 198.509 31.6696 198.809 32.3689C199.109 32.9683 199.308 33.6676 199.308 34.4669C199.308 35.2661 199.109 35.9654 198.809 36.5648C198.509 37.1643 198.01 37.6638 197.41 38.0634C196.711 38.3631 196.111 38.5629 195.312 38.5629ZM195.312 30.9702C194.713 30.9702 194.113 31.0701 193.614 31.3698C193.114 31.6695 192.715 32.0692 192.415 32.5687C192.115 33.0682 192.015 33.6676 192.015 34.367C192.015 35.0663 192.115 35.6657 192.415 36.1652C192.715 36.6647 193.114 37.0644 193.614 37.3641C194.113 37.6638 194.713 37.7637 195.312 37.7637C195.912 37.7637 196.511 37.6638 197.011 37.3641C197.51 37.0644 197.91 36.6647 198.209 36.1652C198.509 35.6657 198.609 35.0663 198.609 34.367C198.609 33.6676 198.509 33.0682 198.209 32.5687C197.91 32.0692 197.51 31.6695 197.011 31.3698C196.511 31.17 195.912 30.9702 195.312 30.9702Z" fill="#922686"/>
<path d="M200.807 38.5629C200.707 38.5629 200.507 38.5629 200.207 38.463H200.108L200.207 37.8636H200.307C200.507 37.8636 200.607 37.9635 200.707 37.9635C201.107 37.9635 201.406 37.7637 201.606 37.3641C201.806 36.9645 202.006 36.365 202.106 35.7656C202.206 35.0663 202.305 34.2671 202.305 33.1681L202.405 30.4707H208V38.6628H207.301V31.17H203.005L202.905 33.3679C202.805 34.4669 202.705 35.4659 202.605 36.1652C202.505 36.9645 202.305 37.5639 202.006 38.0634C201.706 38.3631 201.306 38.5629 200.807 38.5629Z" fill="#922686"/>
</svg>
