<svg width="129" height="38" viewBox="0 0 129 38" fill="none" xmlns="http://www.w3.org/2000/svg">
<path d="M30.7089 1.95166V1.26284H22.961C22.961 6.142 21.8864 15.3263 17.0793 18.713C16.4007 19.2296 15.6655 19.574 14.9303 19.7462C14.5344 19.8036 14.1385 19.861 13.7427 19.861C10.7453 19.861 8.2569 17.278 8.2569 14.1209C8.2569 10.8489 10.5756 8.43807 13.6295 8.43807C14.082 8.43807 14.4779 8.49547 14.9303 8.55287C15.722 8.72508 17.9842 9.2991 19.7374 11.997C20.5292 10.1027 21.3209 6.42901 21.3209 2.87009C20.416 1.49245 16.8531 0 13.573 0C9.84042 0.0574018 6.39062 1.54985 3.84568 4.30514C1.3573 6.88822 0 10.3897 0 14.1209C0 17.852 1.41385 21.3535 3.95879 24.0514C6.56028 26.7493 10.0101 28.2417 13.7427 28.2417C23.7527 28.2417 30.1999 17.3928 30.7089 1.95166Z" fill="white"/>
<path d="M22.1692 28.2417H30.9917C30.9917 28.0121 30.9917 13.0876 30.9917 11.997C29.4081 19.287 26.3542 25.0272 22.1692 28.2417Z" fill="white"/>
<path d="M40.6059 9.299H38.0044L37.552 11.3081H36.0815L38.5699 1.26275H40.0969L42.5853 11.3081H41.1149L40.6059 9.299ZM40.3231 7.92136L39.701 5.22347C39.5313 4.59205 39.4182 3.61622 39.3617 3.0996H39.3051C39.2486 3.61622 39.0789 4.59205 38.9658 5.22347L38.3437 7.92136H40.3231ZM44.3384 11.3081H45.6957V0.918335H44.3384V11.3081ZM53.0478 6.48631V8.55278C53.0478 10.3896 52.1429 11.4229 50.6725 11.4229C50.1635 11.4229 49.598 11.1933 49.2587 10.8489V13.8337H47.9014V3.73102H48.8628L48.9759 4.41985C49.3152 3.96063 49.9939 3.55882 50.6725 3.55882C52.0864 3.55882 53.0478 4.64945 53.0478 6.48631ZM51.6339 6.48631C51.6339 5.39568 51.1815 4.87906 50.4463 4.87906C49.7676 4.87906 49.2587 5.39568 49.2587 6.48631V8.55278C49.2587 9.52861 49.7111 10.16 50.4463 10.16C51.2381 10.16 51.6339 9.70082 51.6339 8.55278V6.48631ZM60.1736 6.71592C60.1736 4.59205 59.4384 3.55882 58.1377 3.55882C57.4025 3.55882 56.8935 3.90323 56.4976 4.47725V0.975737H55.1403V11.3081H56.4976V6.65852C56.4976 5.56788 57.0066 4.93646 57.7418 4.93646C58.4204 4.93646 58.7598 5.45308 58.7598 6.77332V11.3081H60.1171V6.71592H60.1736ZM67.2429 6.31411V11.3081H66.1118L65.9987 10.5618C65.7159 11.0785 65.1504 11.4803 64.3586 11.4803C63.0013 11.4803 62.0964 10.5618 62.0964 9.1268C62.0964 7.57695 63.1144 6.83072 64.811 6.83072H65.8856V6.31411C65.8856 5.45308 65.5462 4.93646 64.811 4.93646C64.1889 4.93646 63.7365 5.28087 63.68 5.91229H62.3227C62.3792 4.47725 63.3406 3.55882 64.8676 3.55882C66.3946 3.55882 67.2429 4.53465 67.2429 6.31411ZM65.829 7.97876H64.7545C63.9062 7.97876 63.4537 8.38057 63.4537 9.1268C63.4537 9.81562 63.9062 10.2174 64.6414 10.2174C65.3766 10.2174 65.829 9.75822 65.829 8.95459V7.97876ZM42.5853 21.5256C42.5853 23.6495 41.5107 24.7975 39.5313 24.7975H38.3437V28.299H36.9299V18.2537H39.5313C41.5107 18.2537 42.5853 19.4591 42.5853 21.5256ZM41.1149 21.5256C41.1149 20.3202 40.6059 19.6887 39.5313 19.6887H38.3437V23.4199H39.5313C40.6059 23.4199 41.1149 22.7884 41.1149 21.5256ZM49.598 23.7069C49.598 21.583 48.8628 20.5498 47.562 20.5498C46.8268 20.5498 46.3178 20.8942 45.922 21.4682V17.9667H44.5647V28.299H45.922V23.6495C45.922 22.5588 46.431 21.9274 47.1662 21.9274C47.8448 21.9274 48.1841 22.444 48.1841 23.7643V28.299H49.5414V23.7069H49.598ZM56.6672 23.3051V28.299H55.5362L55.4231 27.5528C55.1403 28.0694 54.5747 28.4712 53.783 28.4712C52.4257 28.4712 51.5208 27.5528 51.5208 26.1177C51.5208 24.5679 52.5388 23.8217 54.2354 23.8217H55.31V23.3051C55.31 22.444 54.9706 21.9274 54.2354 21.9274C53.6133 21.9274 53.1609 22.2718 53.1043 22.9032H51.747C51.8036 21.4682 52.765 20.5498 54.292 20.5498C55.8189 20.5498 56.6672 21.5256 56.6672 23.3051ZM55.31 24.9697H54.2354C53.3871 24.9697 52.9347 25.3715 52.9347 26.1177C52.9347 26.8066 53.3871 27.2084 54.1223 27.2084C54.8575 27.2084 55.31 26.7492 55.31 25.9455V24.9697ZM62.662 20.6646C62.4358 20.6072 62.2096 20.5498 61.8702 20.5498C61.0219 20.5498 60.3433 20.9516 59.9474 21.6404L59.7777 20.722H58.8163V28.299H60.1736V23.7643C60.1736 22.5588 60.7391 21.87 61.7006 21.87C62.0399 21.87 62.3227 21.9274 62.6054 22.0422V20.6646H62.662ZM73.0114 23.5921C73.0114 21.583 72.2196 20.6072 70.9754 20.6072C70.1271 20.6072 69.4485 21.009 69.1092 21.7552C68.7698 21.009 68.1477 20.6072 67.356 20.6072C66.5642 20.6072 65.9421 21.009 65.6028 21.6404L65.4331 20.7794H64.4717V28.3564H65.829V23.7069C65.829 22.5588 66.338 21.9848 67.0732 21.9848C67.6953 21.9848 68.0912 22.444 68.0912 23.7069V28.4138H69.4485V23.7643C69.4485 22.6162 69.9575 22.0422 70.6927 22.0422C71.3148 22.0422 71.6541 22.5014 71.6541 23.7643V28.4712H73.0114V23.5921ZM80.0807 23.3051V28.299H78.9496L78.8365 27.5528C78.5537 28.0694 77.9882 28.4712 77.1964 28.4712C75.8391 28.4712 74.9342 27.5528 74.9342 26.1177C74.9342 24.5679 75.9522 23.8217 77.6488 23.8217H78.7234V23.3051C78.7234 22.444 78.384 21.9274 77.6488 21.9274C77.0267 21.9274 76.5743 22.2718 76.5177 22.9032H75.1604C75.217 21.4682 76.1784 20.5498 77.7054 20.5498C79.2323 20.5498 80.0807 21.5256 80.0807 23.3051ZM78.7234 24.9697H77.6488C76.8005 24.9697 76.3481 25.3715 76.3481 26.1177C76.3481 26.8066 76.8005 27.2084 77.5357 27.2084C78.2709 27.2084 78.7234 26.7492 78.7234 25.9455V24.9697ZM82.1166 25.6585C82.1166 27.438 83.078 28.4138 84.605 28.4138C86.1885 28.4138 87.1499 27.438 87.2065 25.6585H85.8492C85.7926 26.6344 85.3967 27.0936 84.605 27.0936C83.8698 27.0936 83.4739 26.6344 83.4739 25.6585V23.3051C83.4739 22.3292 83.8698 21.87 84.605 21.87C85.3402 21.87 85.7926 22.3292 85.7926 23.3051H87.1499C87.0934 21.583 86.1885 20.5498 84.5484 20.5498C83.0215 20.5498 82.0601 21.5256 82.0601 23.3051V25.6585H82.1166ZM94.2757 25.9455C94.1061 27.5528 93.2012 28.4712 91.6177 28.4712C90.0907 28.4712 89.0728 27.438 89.0728 25.6585V23.4199C89.0728 21.6404 90.0342 20.6072 91.6177 20.6072C93.2012 20.6072 94.2192 21.6404 94.2192 23.4199V25.0845H90.4301V25.6585C90.4301 26.6918 90.8825 27.151 91.6177 27.151C92.4095 27.151 92.7488 26.8066 92.8619 25.9455H94.2757ZM90.4301 23.3625V23.9939H92.8619V23.3625C92.8619 22.3292 92.4095 21.87 91.6177 21.87C90.8825 21.87 90.4301 22.3292 90.4301 23.3625ZM99.9312 20.722V25.3715C99.9312 26.4622 99.4222 27.0936 98.687 27.0936C97.9518 27.0936 97.669 26.577 97.669 25.3715V20.722H96.3117V25.4863C96.3117 27.5528 97.1035 28.4712 98.4042 28.4712C99.2525 28.4712 99.8746 28.0694 100.27 27.438L100.384 28.299H101.345V20.722H99.9312ZM106.548 27.0936C105.813 27.0936 105.473 26.6918 105.473 25.8881V22.0422H106.831V20.722H105.473V18.9425H104.116V20.722H103.098V21.9848H104.116V25.8307C104.116 27.3806 104.964 28.3564 106.491 28.3564H107V27.0362H106.548V27.0936ZM108.697 18.5981C108.697 18.0815 109.036 17.7371 109.545 17.7371C110.054 17.7371 110.394 18.0815 110.394 18.5981C110.394 19.1147 110.054 19.4591 109.545 19.4591C109.093 19.4591 108.697 19.1147 108.697 18.5981ZM108.923 20.722H110.281V28.299H108.923V20.722ZM112.317 25.6585C112.317 27.438 113.278 28.4138 114.805 28.4138C116.388 28.4138 117.35 27.438 117.406 25.6585H116.049C115.993 26.6344 115.597 27.0936 114.805 27.0936C114.07 27.0936 113.674 26.6344 113.674 25.6585V23.3051C113.674 22.3292 114.07 21.87 114.805 21.87C115.54 21.87 115.993 22.3292 115.993 23.3051H117.35C117.293 21.583 116.388 20.5498 114.748 20.5498C113.221 20.5498 112.26 21.5256 112.26 23.3051V25.6585H112.317ZM124.306 23.3051V28.299H123.175L123.062 27.5528C122.779 28.0694 122.213 28.4712 121.422 28.4712C120.064 28.4712 119.16 27.5528 119.16 26.1177C119.16 24.5679 120.178 23.8217 121.874 23.8217H122.949V23.3051C122.949 22.444 122.609 21.9274 121.874 21.9274C121.252 21.9274 120.8 22.2718 120.743 22.9032H119.329C119.386 21.4682 120.347 20.5498 121.874 20.5498C123.458 20.5498 124.306 21.5256 124.306 23.3051ZM122.949 24.9697H121.874C121.026 24.9697 120.573 25.3715 120.573 26.1177C120.573 26.8066 121.026 27.2084 121.761 27.2084C122.496 27.2084 122.949 26.7492 122.949 25.9455V24.9697ZM126.512 28.299H127.869V17.9093H126.512V28.299ZM108.132 36.7371C108.188 37.4833 108.64 37.9999 109.376 37.9999C110.167 37.9999 110.563 37.4259 110.563 36.7945C110.563 35.3594 108.527 35.3594 108.527 34.2114C108.527 33.6948 108.867 33.4078 109.376 33.4078C109.828 33.4078 110.167 33.6948 110.224 34.3262H110.507C110.45 33.58 110.054 33.1208 109.319 33.1208C108.64 33.1208 108.188 33.58 108.188 34.2114C108.188 35.589 110.224 35.589 110.224 36.7945C110.224 37.3111 109.885 37.7129 109.319 37.7129C108.754 37.7129 108.471 37.3685 108.414 36.7945H108.132V36.7371ZM113.73 34.6132C113.73 35.589 113.278 36.1057 112.43 36.1057H111.694V37.9425H111.412V33.1782H112.486C113.221 33.1782 113.73 33.6948 113.73 34.6132ZM113.391 34.6132C113.391 33.867 113.052 33.4652 112.373 33.4652H111.638V35.7612H112.373C113.052 35.7612 113.391 35.3594 113.391 34.6132ZM113.674 37.7129C113.674 37.8851 113.787 37.9425 113.9 37.9425C114.07 37.9425 114.126 37.8277 114.126 37.7129C114.126 37.5407 114.013 37.4833 113.9 37.4833C113.787 37.4833 113.674 37.5407 113.674 37.7129ZM118.594 37.8851V37.5981H116.615L118.537 33.3504V33.1208H116.332V33.4078H118.142L116.219 37.5981V37.8851H118.594ZM120.8 36.5075V34.5558C120.8 33.58 121.309 33.0634 122.1 33.0634C122.892 33.0634 123.401 33.58 123.401 34.5558V36.5075C123.401 37.4259 122.892 37.9999 122.1 37.9999C121.309 37.9999 120.8 37.4259 120.8 36.5075ZM123.118 36.5075V34.5558C123.118 33.7522 122.779 33.3504 122.1 33.3504C121.478 33.3504 121.139 33.7522 121.139 34.5558V36.5075C121.139 37.2537 121.478 37.7129 122.1 37.7129C122.722 37.7129 123.118 37.3111 123.118 36.5075ZM124.08 37.7129C124.08 37.8851 124.193 37.9425 124.306 37.9425C124.476 37.9425 124.532 37.8277 124.532 37.7129C124.532 37.5407 124.419 37.4833 124.306 37.4833C124.193 37.4833 124.08 37.5407 124.08 37.7129ZM125.267 36.5075V34.5558C125.267 33.58 125.776 33.0634 126.568 33.0634C127.36 33.0634 127.869 33.58 127.869 34.5558V36.5075C127.869 37.4259 127.36 37.9999 126.568 37.9999C125.776 37.9999 125.267 37.4259 125.267 36.5075ZM127.53 36.5075V34.5558C127.53 33.7522 127.19 33.3504 126.512 33.3504C125.89 33.3504 125.55 33.7522 125.55 34.5558V36.5075C125.55 37.2537 125.89 37.7129 126.512 37.7129C127.19 37.7129 127.53 37.3111 127.53 36.5075ZM128.548 37.7129C128.548 37.8851 128.661 37.9425 128.774 37.9425C128.943 37.9425 129 37.8277 129 37.7129C129 37.5407 128.887 37.4833 128.774 37.4833C128.604 37.4833 128.548 37.5407 128.548 37.7129Z" fill="white"/>
</svg>
