<?xml version="1.0" encoding="UTF-8" standalone="no"?>
<!-- Generator: Adobe Illustrator 15.0.2, SVG Export Plug-In . SVG Version: 6.00 Build 0)  -->

<svg
   xmlns:dc="http://purl.org/dc/elements/1.1/"
   xmlns:cc="http://creativecommons.org/ns#"
   xmlns:rdf="http://www.w3.org/1999/02/22-rdf-syntax-ns#"
   xmlns:svg="http://www.w3.org/2000/svg"
   xmlns="http://www.w3.org/2000/svg"
   xmlns:sodipodi="http://sodipodi.sourceforge.net/DTD/sodipodi-0.dtd"
   xmlns:inkscape="http://www.inkscape.org/namespaces/inkscape"
   version="1.1"
   id="Layer_1"
   x="0px"
   y="0px"
   width="274"
   height="82"
   viewBox="0 0 274 82"
   enable-background="new 0 0 600 1024"
   xml:space="preserve"
   sodipodi:docname="compendium_ua.svg"
   inkscape:version="0.92.2 5c3e80d, 2017-08-06"><metadata
     id="metadata71"><rdf:RDF><cc:Work
         rdf:about=""><dc:format>image/svg+xml</dc:format><dc:type
           rdf:resource="http://purl.org/dc/dcmitype/StillImage" /><dc:title /></cc:Work></rdf:RDF></metadata><defs
     id="defs69" /><sodipodi:namedview
     pagecolor="#ffffff"
     bordercolor="#666666"
     borderopacity="1"
     objecttolerance="10"
     gridtolerance="10"
     guidetolerance="10"
     inkscape:pageopacity="0"
     inkscape:pageshadow="2"
     inkscape:window-width="1680"
     inkscape:window-height="988"
     id="namedview67"
     showgrid="false"
     inkscape:zoom="2.6074563"
     inkscape:cx="212.53845"
     inkscape:cy="47.955409"
     inkscape:window-x="1920"
     inkscape:window-y="0"
     inkscape:window-maximized="1"
     inkscape:current-layer="Layer_1" /><rect
     x="187.82501"
     y="37.994976"
     width="8.7449999"
     height="20.263"
     id="rect2"
     style="clip-rule:evenodd;fill:#03428e;fill-rule:evenodd" /><polygon
     points="428.212,564.243 168.271,564.243 168.271,550.301 428.212,550.301 "
     id="polygon4"
     style="clip-rule:evenodd;fill:#03428e;fill-rule:evenodd"
     transform="translate(-167.431,-482.243)" /><path
     d="M 0.844,81.626 V 1.116 H 26.242 V 41.041 L 40.304,18.211 H 68.159 L 46.55,48.29 68.793,81.626 H 39.581 L 26.243,57.512 V 81.626 Z M 26.618,37.171 c 2.553,0 4.759,0.459 6.62,1.385 1.858,0.925 3.255,2.21 4.215,3.874 0.95,1.662 1.426,3.566 1.426,5.729 0,2.159 -0.476,4.073 -1.426,5.745 -0.96,1.673 -2.357,2.966 -4.215,3.894 -1.86,0.924 -4.067,1.383 -6.62,1.383 -2.559,0 -4.764,-0.459 -6.628,-1.383 -1.853,-0.928 -3.255,-2.221 -4.211,-3.894 -0.957,-1.672 -1.432,-3.586 -1.432,-5.745 0,-2.163 0.475,-4.067 1.432,-5.729 0.956,-1.664 2.359,-2.949 4.211,-3.874 1.865,-0.926 4.07,-1.385 6.628,-1.385 z m 0,14.377 c 1.037,0 1.824,-0.332 2.351,-1.011 0.522,-0.681 0.791,-1.477 0.791,-2.378 0,-0.882 -0.268,-1.665 -0.791,-2.339 -0.535,-0.681 -1.317,-1.015 -2.351,-1.015 -1.038,0 -1.822,0.341 -2.357,1.023 -0.523,0.686 -0.789,1.46 -0.789,2.33 0,0.882 0.266,1.672 0.8,2.354 0.532,0.695 1.314,1.036 2.346,1.036 z m 14.104,6.753 3.242,-20.25 h 10.587 l 3.106,10.85 3.067,-10.85 h 10.621 l 3.239,20.25 h -8.777 l -1.724,-9.976 -2.908,9.976 h -7.044 l -2.953,-9.976 -1.675,9.976 z m 36.8,-20.25 h 22.938 v 20.25 H 91.047 V 44.504 h -4.114 v 13.797 h -9.411 z m 50.084,12.031 h -14.839 c 0,0.986 0.259,1.87 0.771,2.641 0.519,0.785 1.336,1.177 2.464,1.177 1.466,0 2.388,-0.588 2.773,-1.763 h 8.412 c -0.398,1.103 -0.943,2.094 -1.653,2.977 -0.704,0.878 -1.563,1.617 -2.564,2.226 -1.01,0.605 -2.132,1.065 -3.366,1.376 -1.241,0.315 -2.592,0.466 -4.065,0.466 -2.702,0 -4.914,-0.536 -6.629,-1.605 -1.722,-1.068 -2.955,-2.446 -3.713,-4.117 -0.75,-1.674 -1.124,-3.438 -1.124,-5.299 0,-2.301 0.519,-4.279 1.549,-5.941 1.029,-1.665 2.429,-2.922 4.212,-3.777 1.785,-0.846 3.789,-1.27 6.01,-1.27 4.577,0 7.687,1.333 9.316,4.011 1.63,2.678 2.446,5.641 2.446,8.898 z m -14.71,-4.11 h 6.173 c 0,-0.903 -0.257,-1.715 -0.774,-2.435 -0.516,-0.72 -1.277,-1.083 -2.292,-1.083 -0.859,0 -1.582,0.344 -2.173,1.025 -0.58,0.686 -0.895,1.521 -0.934,2.493 z m 18.314,12.329 v -20.25 h 9.415 v 6.453 h 3.822 v -6.453 h 9.407 v 20.25 h -9.407 V 50.96 h -3.822 v 7.341 z m 30.288,-20.25 h 19.394 v 13.793 h 2.944 v 12.322 h -7.062 v -5.865 h -12.938 v 5.865 h -7.053 V 51.844 c 3.146,0 4.715,-2.323 4.715,-6.962 z m 10.575,13.793 v -7.34 h -2.926 v 2.557 c 0,2.069 -0.755,3.663 -2.279,4.783 z m 27.59,-13.793 h 10.581 l 4.325,8.803 3.061,-8.803 h 9.083 l -12.349,28.476 h -9.42 l 5.259,-10.568 z m 27.208,20.25 3.244,-20.25 h 10.579 l 3.115,10.85 3.061,-10.85 h 10.619 l 3.244,20.25 h -8.783 l -1.72,-9.976 -2.903,9.976 h -7.046 l -2.949,-9.976 -1.682,9.976 z"
     id="path6"
     inkscape:connector-curvature="0"
     style="clip-rule:evenodd;fill:#03428e;fill-rule:evenodd" /><path
     d="m 25.773,49.868 c 1.045,0 1.828,-0.333 2.352,-1.011 0.526,-0.685 0.792,-1.478 0.792,-2.381 0,-0.879 -0.266,-1.658 -0.792,-2.339 -0.531,-0.68 -1.314,-1.015 -2.352,-1.015 -1.033,0 -1.819,0.344 -2.349,1.028 -0.527,0.683 -0.795,1.461 -0.795,2.325 0,0.884 0.268,1.672 0.799,2.36 0.532,0.69 1.312,1.033 2.345,1.033 z"
     id="path8"
     inkscape:connector-curvature="0"
     style="clip-rule:evenodd;fill:#ffffff;fill-rule:evenodd" /><polygon
     points="253.524,538.866 244.107,538.866 244.107,518.612 267.051,518.612 267.051,538.866 257.635,538.866 257.635,525.064 253.524,525.064 "
     id="polygon10"
     style="clip-rule:evenodd;fill:#ffffff;fill-rule:evenodd"
     transform="translate(-167.431,-482.243)" /><path
     d="m 126.764,48.398 h -14.839 c 0,0.987 0.261,1.87 0.771,2.646 0.519,0.782 1.342,1.174 2.464,1.174 1.465,0 2.387,-0.586 2.773,-1.761 h 8.408 c -0.39,1.104 -0.941,2.098 -1.647,2.978 -0.704,0.871 -1.564,1.612 -2.569,2.225 -1.007,0.604 -2.127,1.068 -3.363,1.376 -1.242,0.311 -2.593,0.467 -4.063,0.467 -2.702,0 -4.913,-0.538 -6.632,-1.608 -1.72,-1.069 -2.953,-2.443 -3.705,-4.117 -0.751,-1.671 -1.131,-3.438 -1.131,-5.299 0,-2.301 0.518,-4.276 1.546,-5.939 1.029,-1.665 2.432,-2.923 4.217,-3.775 1.785,-0.847 3.788,-1.271 6.011,-1.271 4.573,0 7.681,1.333 9.313,4.012 1.634,2.67 2.446,5.635 2.446,8.892 z m -14.712,-4.109 h 6.174 c 0,-0.901 -0.258,-1.715 -0.777,-2.431 -0.508,-0.72 -1.274,-1.083 -2.289,-1.083 -0.862,0 -1.584,0.342 -2.173,1.026 -0.58,0.685 -0.896,1.518 -0.935,2.488 z"
     id="path12"
     inkscape:connector-curvature="0"
     style="clip-rule:evenodd;fill:#ffffff;fill-rule:evenodd" /><polygon
     points="320.442,518.612 320.442,538.866 311.035,538.866 311.035,531.524 307.214,531.524 307.214,538.866 297.796,538.866 297.796,518.612 307.214,518.612 307.214,525.064 311.035,525.064 311.035,518.612 "
     id="polygon14"
     style="clip-rule:evenodd;fill:#ffffff;fill-rule:evenodd"
     transform="translate(-167.431,-482.243)" /><path
     d="M 0,79.944 V 1.116 H 25.399 V 39.36 L 39.465,16.532 H 67.314 L 45.711,46.607 67.951,79.944 H 38.741 L 25.399,55.832 V 79.944 Z M 25.773,35.491 c 2.554,0 4.764,0.456 6.621,1.385 1.859,0.92 3.26,2.205 4.217,3.871 0.952,1.661 1.427,3.57 1.427,5.729 0,2.162 -0.475,4.074 -1.427,5.749 -0.957,1.667 -2.358,2.963 -4.217,3.893 -1.857,0.921 -4.067,1.383 -6.621,1.383 -2.554,0 -4.757,-0.462 -6.622,-1.383 -1.856,-0.93 -3.256,-2.226 -4.212,-3.893 -0.956,-1.675 -1.432,-3.587 -1.432,-5.749 0,-2.159 0.476,-4.068 1.432,-5.729 0.956,-1.666 2.356,-2.951 4.212,-3.871 1.864,-0.929 4.067,-1.385 6.622,-1.385 z m 14.11,21.132 3.235,-20.254 h 10.59 l 3.108,10.852 3.064,-10.852 h 10.622 l 3.243,20.254 h -8.783 l -1.72,-9.986 -2.904,9.986 H 53.287 L 50.34,46.637 48.661,56.623 Z M 160.65,36.369 h 19.403 v 13.794 h 2.939 v 12.32 h -7.057 v -5.86 h -12.938 v 5.86 h -7.06 v -12.32 c 3.148,0 4.712,-2.323 4.712,-6.964 v -6.83 z m 10.58,13.794 v -7.342 h -2.925 v 2.558 c 0,2.069 -0.755,3.666 -2.277,4.784 z"
     id="path16"
     inkscape:connector-curvature="0"
     style="clip-rule:evenodd;fill:#ffffff;fill-rule:evenodd" /><polygon
     points="371.539,547.083 376.791,536.523 366.245,518.612 376.835,518.612 381.162,527.416 384.221,518.612 393.309,518.612 380.955,547.083 "
     id="polygon18"
     style="clip-rule:evenodd;fill:#ffffff;fill-rule:evenodd"
     transform="translate(-167.431,-482.243)" /><polygon
     points="427.322,538.866 418.547,538.866 416.816,528.88 413.912,538.866 406.861,538.866 403.916,528.88 402.234,538.866 393.459,538.866 396.697,518.612 407.285,518.612 410.395,529.464 413.461,518.612 424.076,518.612 "
     id="polygon20"
     style="clip-rule:evenodd;fill:#ffffff;fill-rule:evenodd"
     transform="translate(-167.431,-482.243)" /><rect
     x="187.116"
     y="36.452984"
     width="8.7449999"
     height="20.263"
     id="rect22"
     style="clip-rule:evenodd;fill:#ffffff;fill-rule:evenodd" /><path
     d="m 191.897,35.368 c 1.046,0 1.828,-0.333 2.352,-1.011 0.527,-0.685 0.793,-1.478 0.793,-2.381 0,-0.879 -0.266,-1.658 -0.793,-2.339 -0.531,-0.68 -1.314,-1.015 -2.352,-1.015 -1.032,0 -1.818,0.344 -2.348,1.028 -0.527,0.683 -0.795,1.461 -0.795,2.325 0,0.884 0.268,1.672 0.799,2.36 0.532,0.69 1.312,1.033 2.344,1.033 z"
     id="path24"
     inkscape:connector-curvature="0"
     style="clip-rule:evenodd;fill:#03428e;fill-rule:evenodd" /><path
     d="m 191.272,34.931 c 1.046,0 1.828,-0.333 2.352,-1.011 0.527,-0.685 0.793,-1.478 0.793,-2.381 0,-0.879 -0.266,-1.658 -0.793,-2.339 -0.531,-0.68 -1.314,-1.015 -2.352,-1.015 -1.032,0 -1.818,0.344 -2.348,1.028 -0.527,0.683 -0.795,1.461 -0.795,2.325 0,0.884 0.268,1.672 0.799,2.36 0.532,0.689 1.312,1.033 2.344,1.033 z"
     id="path26"
     inkscape:connector-curvature="0"
     style="clip-rule:evenodd;fill:#ffffff;fill-rule:evenodd" /><g
     id="g64"
     transform="translate(-167.431,-482.243)"><path
       d="m 254.368,562.632 h -1.172 l -3.571,-8.324 -3.629,8.324 h -1.172 l 4.688,-10.773 h 0.234 z"
       id="path28"
       inkscape:connector-curvature="0"
       style="fill:#f1f2f2" /><path
       d="m 256.548,551.858 h 1.077 v 10.773 h -1.077 z"
       id="path30"
       inkscape:connector-curvature="0"
       style="fill:#f1f2f2" /><path
       d="m 260.618,551.858 h 1.099 v 4.043 l 4.307,-4.043 h 1.447 l -5.175,4.834 5.577,5.939 h -1.434 l -4.722,-5.019 v 5.019 h -1.099 z"
       id="path32"
       inkscape:connector-curvature="0"
       style="fill:#f1f2f2" /><path
       d="m 274.407,551.858 5.024,10.773 h -1.163 l -1.694,-3.545 h -4.642 l -1.678,3.545 h -1.201 l 5.09,-10.773 z m -0.136,2.288 -1.846,3.9 h 3.683 z"
       id="path34"
       inkscape:connector-curvature="0"
       style="fill:#f1f2f2" /><path
       d="m 281.619,551.858 h 2.146 c 1.23,0 2.061,0.054 2.49,0.16 0.615,0.152 1.118,0.463 1.509,0.935 0.391,0.471 0.586,1.063 0.586,1.776 0,0.717 -0.19,1.31 -0.571,1.775 -0.381,0.467 -0.906,0.78 -1.575,0.941 -0.488,0.117 -1.401,0.176 -2.739,0.176 h -0.769 v 5.01 h -1.077 z m 1.077,1.055 v 3.654 l 1.824,0.021 c 0.737,0 1.277,-0.066 1.619,-0.2 0.342,-0.135 0.61,-0.352 0.806,-0.65 0.195,-0.3 0.293,-0.635 0.293,-1.006 0,-0.36 -0.098,-0.69 -0.293,-0.99 -0.195,-0.3 -0.453,-0.513 -0.773,-0.64 -0.32,-0.127 -0.843,-0.189 -1.571,-0.189 z"
       id="path36"
       inkscape:connector-curvature="0"
       style="fill:#f1f2f2" /><path
       d="m 301.063,553.857 -0.85,0.651 c -0.469,-0.609 -1.032,-1.072 -1.688,-1.388 -0.657,-0.314 -1.378,-0.472 -2.164,-0.472 -0.859,0 -1.655,0.206 -2.388,0.618 -0.732,0.413 -1.3,0.967 -1.703,1.663 -0.402,0.695 -0.604,1.479 -0.604,2.348 0,1.313 0.451,2.409 1.351,3.288 0.901,0.879 2.038,1.318 3.41,1.318 1.509,0 2.771,-0.591 3.787,-1.772 l 0.85,0.645 c -0.537,0.684 -1.208,1.212 -2.011,1.586 -0.803,0.373 -1.7,0.561 -2.691,0.561 -1.885,0 -3.372,-0.628 -4.46,-1.883 -0.913,-1.06 -1.37,-2.339 -1.37,-3.838 0,-1.577 0.553,-2.904 1.659,-3.98 1.105,-1.077 2.491,-1.615 4.156,-1.615 1.006,0 1.914,0.199 2.725,0.597 0.809,0.398 1.473,0.956 1.991,1.673 z"
       id="path38"
       inkscape:connector-curvature="0"
       style="fill:#f1f2f2" /><path
       d="m 303.741,551.858 h 1.076 v 4.621 h 0.776 c 1.411,0 2.424,0.068 3.039,0.205 0.615,0.137 1.111,0.45 1.487,0.941 0.376,0.49 0.563,1.124 0.563,1.9 0,0.762 -0.183,1.393 -0.549,1.894 -0.366,0.5 -0.833,0.827 -1.398,0.981 -0.567,0.153 -1.517,0.23 -2.85,0.23 h -2.146 v -10.772 z m 1.076,9.734 h 1.15 c 1.211,0 2,-0.058 2.369,-0.172 0.368,-0.115 0.661,-0.328 0.879,-0.642 0.217,-0.312 0.325,-0.712 0.325,-1.201 0,-0.536 -0.137,-0.974 -0.41,-1.311 -0.273,-0.337 -0.621,-0.543 -1.043,-0.619 -0.423,-0.075 -1.21,-0.113 -2.362,-0.113 h -0.908 z"
       id="path40"
       inkscape:connector-curvature="0"
       style="fill:#f1f2f2" /><path
       d="m 313.363,551.858 h 1.098 v 4.043 l 4.307,-4.043 h 1.447 l -5.175,4.834 5.577,5.939 h -1.434 l -4.723,-5.019 v 5.019 h -1.098 v -10.773 z"
       id="path42"
       inkscape:connector-curvature="0"
       style="fill:#f1f2f2" /><path
       d="m 322.596,551.858 h 1.076 v 10.773 h -1.076 z"
       id="path44"
       inkscape:connector-curvature="0"
       style="fill:#f1f2f2" /><path
       d="m 331.33,551.858 h 7.639 v 10.773 h -1.076 v -9.748 h -5.486 v 9.748 h -1.076 v -10.773 z"
       id="path46"
       inkscape:connector-curvature="0"
       style="fill:#f1f2f2" /><path
       d="m 342.108,551.858 h 2.146 c 1.23,0 2.061,0.054 2.49,0.16 0.615,0.152 1.118,0.463 1.51,0.935 0.39,0.471 0.586,1.063 0.586,1.776 0,0.717 -0.191,1.31 -0.572,1.775 -0.381,0.467 -0.905,0.78 -1.574,0.941 -0.488,0.117 -1.401,0.176 -2.739,0.176 h -0.769 v 5.01 h -1.077 v -10.773 z m 1.078,1.055 v 3.654 l 1.823,0.021 c 0.737,0 1.276,-0.066 1.618,-0.2 0.342,-0.135 0.61,-0.352 0.807,-0.65 0.194,-0.3 0.293,-0.635 0.293,-1.006 0,-0.36 -0.099,-0.69 -0.293,-0.99 -0.196,-0.3 -0.453,-0.513 -0.773,-0.64 -0.319,-0.127 -0.844,-0.189 -1.57,-0.189 z"
       id="path48"
       inkscape:connector-curvature="0"
       style="fill:#f1f2f2" /><path
       d="m 351.524,551.858 h 6.175 v 1.055 h -5.098 v 3.376 h 5.053 v 1.055 h -5.053 v 4.233 h 5.053 v 1.055 h -6.13 z"
       id="path50"
       inkscape:connector-curvature="0"
       style="fill:#f1f2f2" /><path
       d="m 360.07,551.858 h 7.639 v 10.773 h -1.076 v -9.748 h -5.486 v 9.748 h -1.076 v -10.773 z"
       id="path52"
       inkscape:connector-curvature="0"
       style="fill:#f1f2f2" /><path
       d="m 375.258,551.858 5.024,10.773 h -1.163 l -1.694,-3.545 h -4.642 l -1.678,3.545 h -1.201 l 5.09,-10.773 z m -0.136,2.288 -1.847,3.9 h 3.684 z"
       id="path54"
       inkscape:connector-curvature="0"
       style="fill:#f1f2f2" /><path
       d="m 382.47,551.858 h 2.146 c 1.23,0 2.061,0.054 2.49,0.16 0.615,0.152 1.118,0.463 1.51,0.935 0.39,0.471 0.586,1.063 0.586,1.776 0,0.717 -0.191,1.31 -0.572,1.775 -0.381,0.467 -0.905,0.78 -1.574,0.941 -0.488,0.117 -1.401,0.176 -2.739,0.176 h -0.769 v 5.01 h -1.077 v -10.773 z m 1.077,1.055 v 3.654 l 1.823,0.021 c 0.737,0 1.276,-0.066 1.618,-0.2 0.342,-0.135 0.61,-0.352 0.807,-0.65 0.194,-0.3 0.293,-0.635 0.293,-1.006 0,-0.36 -0.099,-0.69 -0.293,-0.99 -0.196,-0.3 -0.453,-0.513 -0.773,-0.64 -0.319,-0.127 -0.844,-0.189 -1.57,-0.189 z"
       id="path56"
       inkscape:connector-curvature="0"
       style="fill:#f1f2f2" /><path
       d="m 396.281,551.858 5.024,10.773 h -1.163 l -1.694,-3.545 h -4.642 l -1.678,3.545 h -1.201 l 5.09,-10.773 z m -0.135,2.288 -1.847,3.9 h 3.684 z"
       id="path58"
       inkscape:connector-curvature="0"
       style="fill:#f1f2f2" /><path
       d="m 402.432,552.913 v -1.055 h 5.902 v 1.055 h -2.402 v 9.719 h -1.098 v -9.719 z"
       id="path60"
       inkscape:connector-curvature="0"
       style="fill:#f1f2f2" /><path
       d="m 418.886,562.632 h -1.12 v -8.261 l -7.105,8.261 h -0.241 v -10.773 h 1.077 v 8.402 l 7.148,-8.402 h 0.241 z"
       id="path62"
       inkscape:connector-curvature="0"
       style="fill:#f1f2f2" /></g></svg>